<?xml version="1.0" encoding="UTF-8" standalone="no"?>
<!-- Created with Inkscape (http://www.inkscape.org/) -->
<svg
   xmlns:dc="http://purl.org/dc/elements/1.1/"
   xmlns:cc="http://web.resource.org/cc/"
   xmlns:rdf="http://www.w3.org/1999/02/22-rdf-syntax-ns#"
   xmlns:svg="http://www.w3.org/2000/svg"
   xmlns="http://www.w3.org/2000/svg"
   xmlns:xlink="http://www.w3.org/1999/xlink"
   xmlns:sodipodi="http://sodipodi.sourceforge.net/DTD/sodipodi-0.dtd"
   xmlns:inkscape="http://www.inkscape.org/namespaces/inkscape"
   width="32px"
   height="32px"
   id="svg2353"
   sodipodi:version="0.32"
   inkscape:version="0.45"
   sodipodi:modified="true">
  <defs
     id="defs2355">
    <linearGradient
       id="linearGradient6848">
      <stop
         style="stop-color:#2626b5;stop-opacity:1"
         offset="0"
         id="stop6850" />
      <stop
         style="stop-color:#000000;stop-opacity:0.3877551"
         offset="1"
         id="stop6852" />
    </linearGradient>
    <radialGradient
       cx="-37.359688"
       cy="75.738724"
       r="11.230826"
       fx="-37.359688"
       fy="75.738724"
       id="radialGradient7785"
       xlink:href="#linearGradient6848"
       gradientUnits="userSpaceOnUse"
       gradientTransform="matrix(1.045216,0,0,1.045705,55.3771,-63.00172)" />
    <linearGradient
       id="linearGradient5957">
      <stop
         style="stop-color:#ffffff;stop-opacity:0.83673471"
         offset="0"
         id="stop5959" />
      <stop
         style="stop-color:#2626b5;stop-opacity:0"
         offset="1"
         id="stop5961" />
    </linearGradient>
    <radialGradient
       inkscape:collect="always"
       xlink:href="#linearGradient5957"
       id="radialGradient1563"
       gradientUnits="userSpaceOnUse"
       gradientTransform="matrix(0.705918,-0.758491,0.500819,0.431179,-194.3472,203.08773)"
       cx="269.96179"
       cy="27.899073"
       fx="269.96179"
       fy="27.899073"
       r="6.124455" />
  </defs>
  <sodipodi:namedview
     id="base"
     pagecolor="#ffffff"
     bordercolor="#666666"
     borderopacity="1.0"
     inkscape:pageopacity="0.0"
     inkscape:pageshadow="2"
     inkscape:zoom="11.197802"
     inkscape:cx="16"
     inkscape:cy="16"
     inkscape:current-layer="layer1"
     showgrid="true"
     inkscape:grid-bbox="true"
     inkscape:document-units="px"
     inkscape:window-width="770"
     inkscape:window-height="584"
     inkscape:window-x="0"
     inkscape:window-y="290" />
  <metadata
     id="metadata2358">
    <rdf:RDF>
      <cc:Work
         rdf:about="">
        <dc:format>image/svg+xml</dc:format>
        <dc:type
           rdf:resource="http://purl.org/dc/dcmitype/StillImage" />
      </cc:Work>
    </rdf:RDF>
  </metadata>
  <g
     id="layer1"
     inkscape:label="Layer 1"
     inkscape:groupmode="layer">
    <path
       style="fill:#000000;fill-opacity:0.2;stroke:none;stroke-width:0.5;stroke-linecap:butt;stroke-linejoin:miter;stroke-miterlimit:4;stroke-dashoffset:0;stroke-opacity:1;display:inline"
       d="M 31.31038,17.25587 C 31.31038,23.73863 26.051463,29 19.57173,29 C 13.092,29 7.8330897,23.73863 7.8330897,17.25587 C 7.8330897,10.77311 13.092,5.5117401 19.57173,5.5117401 C 26.051463,5.5117401 31.31038,10.77311 31.31038,17.25587 z "
       id="path8746" />
    <path
       style="fill:#2626b5;fill-opacity:1;stroke:none;stroke-width:0.5;stroke-linecap:butt;stroke-linejoin:miter;stroke-miterlimit:4;stroke-dashoffset:0;stroke-opacity:1;display:inline"
       d="M 28.06681,16.198635 C 28.06681,22.681396 22.807893,27.942766 16.328163,27.942766 C 9.8484327,27.942766 4.5895228,22.681396 4.5895228,16.198635 C 4.5895228,9.7158751 9.8484327,4.4545031 16.328163,4.4545031 C 22.807893,4.4545031 28.06681,9.7158751 28.06681,16.198635 z "
       id="use2387" />
    <path
       style="fill:url(#radialGradient7785);fill-opacity:1;stroke:none;stroke-width:0.5;stroke-linecap:butt;stroke-linejoin:miter;stroke-miterlimit:4;stroke-dashoffset:0;stroke-opacity:1;display:inline"
       d="M 28.06681,16.198635 C 28.06681,22.681396 22.807893,27.942766 16.328163,27.942766 C 9.8484327,27.942766 4.5895228,22.681396 4.5895228,16.198635 C 4.5895228,9.7158751 9.8484327,4.4545031 16.328163,4.4545031 C 22.807893,4.4545031 28.06681,9.7158751 28.06681,16.198635 z "
       id="path7769" />
    <path
       style="fill:url(#radialGradient1563);fill-opacity:1;fill-rule:evenodd;stroke:none;stroke-width:1px;stroke-linecap:butt;stroke-linejoin:miter;stroke-opacity:1;display:inline"
       d="M 14.487003,6.1879121 C 12.956353,5.6552551 10.934673,6.7975261 8.6500127,8.9949311 C 7.4615927,10.137949 6.1136927,12.325297 6.1136927,13.941537 C 6.1136927,16.122225 9.2567027,17.223392 10.856243,16.748557 C 13.098573,16.082903 13.405673,14.376563 14.091313,13.05768 C 15.211213,10.903451 17.058063,10.770123 17.058063,7.6257421 C 17.058063,6.2453381 15.316103,6.3473991 14.487003,6.1879121 z "
       id="path7833" />
  </g>
</svg>
