<?xml version="1.0" standalone="no"?>
<!DOCTYPE svg PUBLIC "-//W3C//DTD SVG 1.1//EN"
  "http://www.w3.org/Graphics/SVG/1.1/DTD/svg11.dtd">
<svg width="16cm" height="16cm" viewBox="0 0 1600 1600"
     xmlns="http://www.w3.org/2000/svg" version="1.1">
  <rect id="border" x="100" y="100" width="1400" height="1400"
        fill="none" stroke="blue" stroke-width="5px" />
  <g id="grid" stroke="blue" >
    <line x1="100" y1="200" x2="1500" y2="200" stroke-width="2px" />
    <line x1="100" y1="300" x2="1500" y2="300" stroke-width="2px" />
    <line x1="100" y1="400" x2="1500" y2="400" stroke-width="2px" />
    <line x1="100" y1="500" x2="1500" y2="500" stroke-width="2px" />
    <line x1="100" y1="600" x2="1500" y2="600" stroke-width="2px" />
    <line x1="100" y1="700" x2="1500" y2="700" stroke-width="2px" />
    <line x1="100" y1="800" x2="1500" y2="800" stroke-width="2px" />
    <line x1="100" y1="900" x2="1500" y2="900" stroke-width="2px" />
    <line x1="100" y1="1000" x2="1500" y2="1000" stroke-width="2px" />
    <line x1="100" y1="1100" x2="1500" y2="1100" stroke-width="2px" />
    <line x1="100" y1="1200" x2="1500" y2="1200" stroke-width="2px" />
    <line x1="100" y1="1300" x2="1500" y2="1300" stroke-width="2px" />
    <line x1="100" y1="1400" x2="1500" y2="1400" stroke-width="2px" />

    <line x1="200" y1="100" x2="200" y2="1500" stroke-width="2px" />
    <line x1="300" y1="100" x2="300" y2="1500" stroke-width="2px" />
    <line x1="400" y1="100" x2="400" y2="1500" stroke-width="2px" />
    <line x1="500" y1="100" x2="500" y2="1500" stroke-width="2px" />
    <line x1="600" y1="100" x2="600" y2="1500" stroke-width="2px" />
    <line x1="700" y1="100" x2="700" y2="1500" stroke-width="2px" />
    <line x1="800" y1="100" x2="800" y2="1500" stroke-width="2px" />
    <line x1="900" y1="100" x2="900" y2="1500" stroke-width="2px" />
    <line x1="1000" y1="100" x2="1000" y2="1500" stroke-width="2px" />
    <line x1="1100" y1="100" x2="1100" y2="1500" stroke-width="2px" />
    <line x1="1200" y1="100" x2="1200" y2="1500" stroke-width="2px" />
    <line x1="1300" y1="100" x2="1300" y2="1500" stroke-width="2px" />
    <line x1="1400" y1="100" x2="1400" y2="1500" stroke-width="2px" />
  </g>
</svg>
