<?xml version="1.0" encoding="UTF-8" standalone="no"?>
<!-- Created with Inkscape (http://www.inkscape.org/) -->
<svg
   xmlns:dc="http://purl.org/dc/elements/1.1/"
   xmlns:cc="http://web.resource.org/cc/"
   xmlns:rdf="http://www.w3.org/1999/02/22-rdf-syntax-ns#"
   xmlns:svg="http://www.w3.org/2000/svg"
   xmlns="http://www.w3.org/2000/svg"
   xmlns:sodipodi="http://sodipodi.sourceforge.net/DTD/sodipodi-0.dtd"
   xmlns:inkscape="http://www.inkscape.org/namespaces/inkscape"
   width="16px"
   height="16px"
   id="svg6194"
   sodipodi:version="0.32"
   inkscape:version="0.45"
   sodipodi:modified="true">
  <defs
     id="defs6196" />
  <sodipodi:namedview
     id="base"
     pagecolor="#ffffff"
     bordercolor="#666666"
     borderopacity="1.0"
     inkscape:pageopacity="0.0"
     inkscape:pageshadow="2"
     inkscape:zoom="22.197802"
     inkscape:cx="8"
     inkscape:cy="8"
     inkscape:current-layer="layer1"
     showgrid="false"
     inkscape:grid-bbox="true"
     inkscape:document-units="px"
     inkscape:window-width="770"
     inkscape:window-height="584"
     inkscape:window-x="263"
     inkscape:window-y="176" />
  <metadata
     id="metadata6199">
    <rdf:RDF>
      <cc:Work
         rdf:about="">
        <dc:format>image/svg+xml</dc:format>
        <dc:type
           rdf:resource="http://purl.org/dc/dcmitype/StillImage" />
      </cc:Work>
    </rdf:RDF>
  </metadata>
  <g
     id="layer1"
     inkscape:label="Layer 1"
     inkscape:groupmode="layer">
    <path
       style="fill:#0000ff;fill-opacity:1;stroke:#0000a1;stroke-width:0.99844682;stroke-linecap:round;stroke-linejoin:round;stroke-miterlimit:2.5;stroke-dasharray:none;stroke-opacity:1"
       id="path6222"
       d="M 8.4203511,2.0566 C 7.4709545,2.1276049 7.5640945,2.3198658 6.9476097,2.9055871 C 5.3232214,4.6678489 4.7063494,6.8005046 4.3399975,9.0246088 C 3.9984417,11.005766 4.0951308,12.339196 6.0138204,13.46715 C 7.6907888,14.207466 9.4836203,14.36091 11.241371,13.811414 C 12.655428,12.359474 12.265908,10.738848 11.757435,8.9914018 C 11.01559,6.860245 9.7990744,4.9454892 8.4249884,3.1114318 L 8.7397753,2.9430348 C 10.120914,4.7724956 11.348715,6.6822567 12.178957,8.7816648 C 13.011442,11.064284 13.34435,12.991446 10.655852,14.225297 C 8.8901962,14.735213 7.1105458,14.542946 5.4448713,13.800399 C 3.3882186,12.629971 3.407507,11.315139 3.8498029,9.2436178 C 4.2179833,7.0431191 4.7231954,4.9325421 6.2988235,3.1535579 C 7.0526092,2.353325 8.0394744,1.6222942 9.2336282,1.5371473 L 8.4203511,2.0566 z " />
  </g>
</svg>
