<?xml version="1.0" standalone="no"?>
<!DOCTYPE svg PUBLIC "-//W3C//DTD SVG 1.1//EN"
          "http://www.w3.org/Graphics/SVG/1.1/DTD/svg11.dtd">
<svg width="2cm" height="3cm" viewBox="0 0 24 24"
xmlns="http://www.w3.org/2000/svg" version="1.1">

  <polygon id="win" fill="#00892c" stroke="none" points="0.1,0.35 0.35,0.35 0.35,0.1 0.65,0.15 0.65,0.35 0.9,0.35 0.9,0.65 0.65,0.65 0.65,0.9 0.35,0.9 0.35,0.65 0.1,0.65 0.1,0.35" />

  <polygon id="last" fill="#00892c" stroke="none" points="0.1,0.35 0.35,0.35 0.35,0.1 0.65,0.15 0.65,0.35 0.9,0.35 0.9,0.65 0.65,0.65 0.65,0.9 0.35,0.9 0.35,0.65 0.1,0.65 0.1,0.35" fill-opacity="0.4" />

  <circle id="x1" cx="2" cy="2" r="1" fill="black" stroke="none" />
  <circle id="x2" cx="2" cy="2" r="1" fill="black" stroke="none" />
  <circle id="x3" cx="2" cy="2" r="1" fill="black" stroke="none" />
  <circle id="x4" cx="2" cy="2" r="1" fill="black" stroke="none" />
  <circle id="x5" cx="2" cy="2" r="1" fill="black" stroke="none" />

  <circle id="o1" cx="2" cy="4" r="1" fill="white" stroke="none" />
  <circle id="o2" cx="2" cy="4" r="1" fill="white" stroke="none" />
  <circle id="o3" cx="2" cy="4" r="1" fill="white" stroke="none" />
  <circle id="o4" cx="2" cy="4" r="1" fill="white" stroke="none" />
  <circle id="o5" cx="2" cy="4" r="1" fill="white" stroke="none" />

  <g id="grid" stroke="black" stroke-width="0.05" >
      <rect x="1" y="1" width="22" height="22" stroke="brown" fill="none" stroke-width="0.1" />

      <line x1="1" y1="1.5" x2="23" y2="1.5"   />
      <line x1="1" y1="2.5" x2="23" y2="2.5"   />
      <line x1="1" y1="3.5" x2="23" y2="3.5"   />
      <line x1="1" y1="4.5" x2="23" y2="4.5"   />
      <line x1="1" y1="5.5" x2="23" y2="5.5"   />
      <line x1="1" y1="6.5" x2="23" y2="6.5"   />
      <line x1="1" y1="7.5" x2="23" y2="7.5"   />
      <line x1="1" y1="8.5" x2="23" y2="8.5"   />
      <line x1="1" y1="9.5" x2="23" y2="9.5"   />
      <line x1="1" y1="10.5" x2="23" y2="10.5"   />
      <line x1="1" y1="11.5" x2="23" y2="11.5"   />
      <line x1="1" y1="12.5" x2="23" y2="12.5"   />
      <line x1="1" y1="13.5" x2="23" y2="13.5"   />
      <line x1="1" y1="14.5" x2="23" y2="14.5"   />
      <line x1="1" y1="15.5" x2="23" y2="15.5"   />
      <line x1="1" y1="16.5" x2="23" y2="16.5"   />
      <line x1="1" y1="17.5" x2="23" y2="17.5"   />
      <line x1="1" y1="18.5" x2="23" y2="18.5"   />
      <line x1="1" y1="19.5" x2="23" y2="19.5"   />
      <line x1="1" y1="20.5" x2="23" y2="20.5"   />
      <line x1="1" y1="21.5" x2="23" y2="21.5"   />
      <line x1="1" y1="22.5" x2="23" y2="22.5"   />

      <line x1="1.5" y1="1" x2="1.5" y2="23"   />
      <line x1="2.5" y1="1" x2="2.5" y2="23"   />
      <line x1="3.5" y1="1" x2="3.5" y2="23"   />
      <line x1="4.5" y1="1" x2="4.5" y2="23"   />
      <line x1="5.5" y1="1" x2="5.5" y2="23"   />
      <line x1="6.5" y1="1" x2="6.5" y2="23"   />
      <line x1="7.5" y1="1" x2="7.5" y2="23"   />
      <line x1="8.5" y1="1" x2="8.5" y2="23"   />
      <line x1="9.5" y1="1" x2="9.5" y2="23"   />
      <line x1="10.5" y1="1" x2="10.5" y2="23"   />
      <line x1="11.5" y1="1" x2="11.5" y2="23"   />
      <line x1="12.5" y1="1" x2="12.5" y2="23"   />
      <line x1="13.5" y1="1" x2="13.5" y2="23"   />
      <line x1="14.5" y1="1" x2="14.5" y2="23"   />
      <line x1="15.5" y1="1" x2="15.5" y2="23"   />
      <line x1="16.5" y1="1" x2="16.5" y2="23"   />
      <line x1="17.5" y1="1" x2="17.5" y2="23"   />
      <line x1="18.5" y1="1" x2="18.5" y2="23"   />
      <line x1="19.5" y1="1" x2="19.5" y2="23"   />
      <line x1="20.5" y1="1" x2="20.5" y2="23"   />
      <line x1="21.5" y1="1" x2="21.5" y2="23"   />
      <line x1="22.5" y1="1" x2="22.5" y2="23"   />
    <path style="font-size:6.59299088px;font-style:normal;font-weight:normal;opacity:1;fill:#000000;fill-opacity:0.21468927;stroke:#000000;stroke-opacity:0;stroke-width:0;stroke-linecap:butt;stroke-linejoin:miter;font-family:Arial Unicode MS;stroke-miterlimit:4;stroke-dasharray:none" d="M 5.7462999,14.263351 L 0.92087286,14.273365 L 0.93039314,13.814967 L 2.3542896,13.812012 L 2.6417811,11.939705 L 1.5766838,11.941916 L 1.5861431,11.486456 L 2.7020938,11.48414 L 2.8997749,10.399489 L 1.2385622,10.402937 L 1.2480826,9.944539 L 5.5875768,9.935534 L 5.5780565,10.393931 L 3.374407,10.398505 L 3.1823764,11.483144 L 5.0978563,11.479168 L 4.8291574,13.806876 L 5.7558202,13.804953 L 5.7462999,14.263351 M 4.5911632,11.935659 L 3.1220636,11.938709 L 2.8458729,13.810992 L 4.3601756,13.80785 L 4.5911632,11.935659 M 10.662247,14.655699 L 10.204567,14.656649 L 10.215429,14.133605 L 7.8846468,14.138442 L 7.873784,14.661486 L 7.4161028,14.662435 L 7.5177138,9.7699207 L 10.763859,9.7631841 L 10.662247,14.655699 M 10.280302,11.010035 L 10.297085,10.201962 L 7.9663018,10.206799 L 7.9495192,11.014872 L 10.280302,11.010035 M 10.253328,12.308829 L 10.271209,11.447864 L 7.9404261,11.452701 L 7.922545,12.313666 L 10.253328,12.308829 M 10.22495,13.675207 L 10.244174,12.749596 L 7.9133908,12.754433 L 7.8941672,13.680045 L 10.22495,13.675207 M 17.457609,14.468236 L 12.406167,14.478719 L 12.415321,14.037951 L 14.181066,14.034287 L 14.243192,11.042948 L 12.67521,11.046201 L 12.684303,10.608373 L 14.303138,10.605014 C 14.047913,10.1981 13.73223,9.8912119 13.356085,9.6843465 L 13.698142,9.4015579 C 14.03968,9.5516878 14.374815,9.8742072 14.703547,10.369116 L 14.413564,10.593031 L 14.41332,10.604785 L 15.554698,10.602416 L 15.269318,10.332683 C 15.731458,10.026143 16.047221,9.6944374 16.216608,9.337565 L 16.547435,9.5954507 C 16.401057,9.932686 16.110721,10.264339 15.676426,10.59041 L 15.676181,10.602164 L 17.371296,10.598646 L 17.362202,11.036475 L 15.799872,11.039717 L 15.737746,14.031057 L 17.466764,14.027469 L 17.457609,14.468236 M 15.280065,14.032007 L 15.342191,11.040667 L 14.700873,11.041998 L 14.638747,14.033338 L 15.280065,14.032007 M 14.080245,13.311669 L 13.66571,13.547596 C 13.575463,12.905271 13.302177,12.279977 12.845848,11.67171 L 13.198474,11.424159 C 13.643785,12.018737 13.937708,12.647907 14.080245,13.311669 M 17.123555,11.645203 C 16.889364,12.401818 16.572925,13.038131 16.174236,13.554143 L 15.815279,13.290439 C 16.261502,12.752781 16.568239,12.130201 16.735492,11.422696 L 17.123555,11.645203 M 23.046582,10.34005 L 22.644629,10.514245 C 22.579969,10.181374 22.492313,9.9131893 22.381657,9.7096909 L 22.809219,9.5266277 C 22.910131,9.7458176 22.989252,10.016958 23.046582,10.34005 M 22.397434,10.582339 L 21.995481,10.756534 C 21.932706,10.423658 21.845989,10.155473 21.735334,9.951974 L 22.160071,9.7689172 C 22.262868,9.988103 22.341988,10.259244 22.397434,10.582339 M 23.079127,13.533937 L 22.716701,13.981314 C 22.206219,13.531832 21.755972,13.084183 21.365958,12.638366 C 20.975978,12.190594 20.595841,11.677177 20.225544,11.098114 C 20.200027,11.057034 20.178795,11.03651 20.161846,11.036541 C 20.144892,11.03658 20.05937,11.119031 19.905278,11.283893 C 19.394807,11.831483 19.005494,12.213292 18.737335,12.429323 L 18.348564,11.968814 C 18.970371,11.501312 19.517058,10.978137 19.988625,10.399285 L 20.429356,10.39837 C 20.822835,11.04007 21.216224,11.595575 21.609524,12.064888 C 22.002817,12.534205 22.492684,13.023887 23.079127,13.533937" />
  </g>


  <rect id="background" x="0" y="0" width="24" height="24" fill="brown" stroke="none" />

</svg>
