<?xml version="1.0" standalone="no"?>
<!DOCTYPE svg PUBLIC "-//W3C//DTD SVG 1.1//EN"
          "http://www.w3.org/Graphics/SVG/1.1/DTD/svg11.dtd">
<svg width="2cm" height="3cm" viewBox="0 0 24 24"
     xmlns="http://www.w3.org/2000/svg" version="1.1">
    
    <defs>
      <style type="text/css"><![CDATA[
        circle, rect, polygon {
          shape-rendering: geometricPrecision;
          color-rendering: optimizeQuality;
        }
      ]]></style>
        <radialGradient id="greenGrad" gradientUnits="userSpaceOnUse"
                        cx="2" cy="2" r="1" fx="2" fy="2">
            <stop offset="0%" stop-color="white" />
            <stop offset="25%" stop-color="lime" />
            <stop offset="75%" stop-color="limegreen" />
            <stop offset="100%" stop-color="forestgreen" />
        </radialGradient>
        <radialGradient id="redGrad" gradientUnits="userSpaceOnUse"
                        cx="2" cy="4" r="1" fx="2" fy="4">
            <stop offset="0%" stop-color="white" />
            <stop offset="25%" stop-color="orangered" />
            <stop offset="75%" stop-color="red" />
            <stop offset="100%" stop-color="crimson" />
        </radialGradient>
    </defs>
    
    <g id="win">
        <rect x="0" y="0" width="10" height="10" fill="none" stroke="none" />
        <polygon fill="gold" stroke="black" stroke-width="1"
                 points="2,3.5 3.5,2 5,3.5 6.5,2 8,3.5 6.5,5 8,6.5
                         6.5,8 5,6.5 3.5,8 2,6.5 3.5,5"/>
    </g>
    
    <g id="last">
        <rect x="0" y="0" width="10" height="10" fill="none" stroke="none" />
        <polygon fill="gold" fill-opacity="0.4" stroke="black" stroke-width="0.6" stroke-opacity="0.4"
                 points="2,3.5 3.5,2 5,3.5 6.5,2 8,3.5 6.5,5 8,6.5
                         6.5,8 5,6.5 3.5,8 2,6.5 3.5,5"/>
    </g>
    
    <circle id="x1" cx="2" cy="2" r="1" fill="url(#greenGrad)" stroke="none" />
    <circle id="x2" cx="2" cy="2" r="1" fill="url(#greenGrad)" stroke="none" />
    <circle id="x3" cx="2" cy="2" r="1" fill="url(#greenGrad)" stroke="none" />
    <circle id="x4" cx="2" cy="2" r="1" fill="url(#greenGrad)" stroke="none" />
    <circle id="x5" cx="2" cy="2" r="1" fill="url(#greenGrad)" stroke="none" />
    
    <circle id="o1" cx="2" cy="4" r="1" fill="url(#redGrad)" stroke="none" />
    <circle id="o2" cx="2" cy="4" r="1" fill="url(#redGrad)" stroke="none" />
    <circle id="o3" cx="2" cy="4" r="1" fill="url(#redGrad)" stroke="none" />
    <circle id="o4" cx="2" cy="4" r="1" fill="url(#redGrad)" stroke="none" />
    <circle id="o5" cx="2" cy="4" r="1" fill="url(#redGrad)" stroke="none" />
    
    <rect id="background" x="0" y="0" width="24" height="24" fill="black"
          stroke="none" />
    
    <g id="grid" stroke="limegreen" >
        <rect x="1" y="1" width="22" height="22" fill="none" stroke="limegreen"
              stroke-width="0.1" />
        <line x1="1" y1="2" x2="23" y2="2" stroke-width="0.05" />
        <line x1="1" y1="3" x2="23" y2="3" stroke-width="0.05" />
        <line x1="1" y1="4" x2="23" y2="4" stroke-width="0.05" />
        <line x1="1" y1="5" x2="23" y2="5" stroke-width="0.05" />
        <line x1="1" y1="6" x2="23" y2="6" stroke-width="0.05" />
        <line x1="1" y1="7" x2="23" y2="7" stroke-width="0.05" />
        <line x1="1" y1="8" x2="23" y2="8" stroke-width="0.05" />
        <line x1="1" y1="9" x2="23" y2="9" stroke-width="0.05" />
        <line x1="1" y1="10" x2="23" y2="10" stroke-width="0.05" />
        <line x1="1" y1="11" x2="23" y2="11" stroke-width="0.05" />
        <line x1="1" y1="12" x2="23" y2="12" stroke-width="0.05" />
        <line x1="1" y1="13" x2="23" y2="13" stroke-width="0.05" />
        <line x1="1" y1="14" x2="23" y2="14" stroke-width="0.05" />
        <line x1="1" y1="15" x2="23" y2="15" stroke-width="0.05" />
        <line x1="1" y1="16" x2="23" y2="16" stroke-width="0.05" />
        <line x1="1" y1="17" x2="23" y2="17" stroke-width="0.05" />
        <line x1="1" y1="18" x2="23" y2="18" stroke-width="0.05" />
        <line x1="1" y1="19" x2="23" y2="19" stroke-width="0.05" />
        <line x1="1" y1="20" x2="23" y2="20" stroke-width="0.05" />
        <line x1="1" y1="21" x2="23" y2="21" stroke-width="0.05" />
        <line x1="1" y1="22" x2="23" y2="22" stroke-width="0.05" />
        
        <line x1="2" y1="1" x2="2" y2="23" stroke-width="0.05" />
        <line x1="3" y1="1" x2="3" y2="23" stroke-width="0.05" />
        <line x1="4" y1="1" x2="4" y2="23" stroke-width="0.05" />
        <line x1="5" y1="1" x2="5" y2="23" stroke-width="0.05" />
        <line x1="6" y1="1" x2="6" y2="23" stroke-width="0.05" />
        <line x1="7" y1="1" x2="7" y2="23" stroke-width="0.05" />
        <line x1="8" y1="1" x2="8" y2="23" stroke-width="0.05" />
        <line x1="9" y1="1" x2="9" y2="23" stroke-width="0.05" />
        <line x1="10" y1="1" x2="10" y2="23" stroke-width="0.05" />
        <line x1="11" y1="1" x2="11" y2="23" stroke-width="0.05" />
        <line x1="12" y1="1" x2="12" y2="23" stroke-width="0.05" />
        <line x1="13" y1="1" x2="13" y2="23" stroke-width="0.05" />
        <line x1="14" y1="1" x2="14" y2="23" stroke-width="0.05" />
        <line x1="15" y1="1" x2="15" y2="23" stroke-width="0.05" />
        <line x1="16" y1="1" x2="16" y2="23" stroke-width="0.05" />
        <line x1="17" y1="1" x2="17" y2="23" stroke-width="0.05" />
        <line x1="18" y1="1" x2="18" y2="23" stroke-width="0.05" />
        <line x1="19" y1="1" x2="19" y2="23" stroke-width="0.05" />
        <line x1="20" y1="1" x2="20" y2="23" stroke-width="0.05" />
        <line x1="21" y1="1" x2="21" y2="23" stroke-width="0.05" />
        <line x1="22" y1="1" x2="22" y2="23" stroke-width="0.05" />
    </g>
    
</svg>
