<?xml version="1.0" standalone="no"?>
<!DOCTYPE svg PUBLIC "-//W3C//DTD SVG 1.1//EN"
          "http://www.w3.org/Graphics/SVG/1.1/DTD/svg11.dtd">
<svg width="2cm" height="3cm" viewBox="0 0 24 24"
xmlns="http://www.w3.org/2000/svg" version="1.1">

  <polygon id="x1" points="0,0 0.25,0 0.5,0.25 0.75,0 1,0 1,0.25 0.75,0.5 1,0.75 1,1 0.75,1 0.5,0.75 0.25,1 0,1 0,0.75 0.25,0.5 0,0.25 0,0" fill="black" stroke="none" />
  <polygon id="x2" points="0,0 0.25,0 0.5,0.25 0.75,0 1,0 1,0.25 0.75,0.5 1,0.75 1,1 0.75,1 0.5,0.75 0.25,1 0,1 0,0.75 0.25,0.5 0,0.25 0,0" fill="black" stroke="none" />
  <polygon id="x3" points="0,0 0.25,0 0.5,0.25 0.75,0 1,0 1,0.25 0.75,0.5 1,0.75 1,1 0.75,1 0.5,0.75 0.25,1 0,1 0,0.75 0.25,0.5 0,0.25 0,0" fill="black" stroke="none" />
  <polygon id="x4" points="0,0 0.25,0 0.5,0.25 0.75,0 1,0 1,0.25 0.75,0.5 1,0.75 1,1 0.75,1 0.5,0.75 0.25,1 0,1 0,0.75 0.25,0.5 0,0.25 0,0" fill="black" stroke="none" />
  <polygon id="x5" points="0,0 0.25,0 0.5,0.25 0.75,0 1,0 1,0.25 0.75,0.5 1,0.75 1,1 0.75,1 0.5,0.75 0.25,1 0,1 0,0.75 0.25,0.5 0,0.25 0,0" fill="black" stroke="none" />

  <circle id="o1" cx="2" cy="4" r="0.8" fill="none" stroke-width="0.25" stroke="black" />
  <circle id="o2" cx="2" cy="4" r="0.8" fill="none" stroke-width="0.25" stroke="black" />
  <circle id="o3" cx="2" cy="4" r="0.8" fill="none" stroke-width="0.25" stroke="black" />
  <circle id="o4" cx="2" cy="4" r="0.8" fill="none" stroke-width="0.25" stroke="black" />
  <circle id="o5" cx="2" cy="4" r="0.8" fill="none" stroke-width="0.25" stroke="black" />

  <rect id="win" x="1" y="1" width="1" height="1" fill="red" stroke-width="0.15" stroke="black" fill-opacity="0.4" />

  <rect id="last" x="1" y="1" width="1" height="1" fill="red" stroke-width="0.10" stroke="black" fill-opacity="0.1" />

  <rect id="background" x="0" y="0" width="24" height="24" fill="yellow"
        stroke="none" />

  <g id="grid" stroke="black" stroke-width="0.05" >
      <rect x="1" y="1" width="22" height="22" stroke="black" fill="none" stroke-width="0.1" />

      <line x1="1" y1="2" x2="23" y2="2"   />
      <line x1="1" y1="3" x2="23" y2="3"   />
      <line x1="1" y1="4" x2="23" y2="4"   />
      <line x1="1" y1="5" x2="23" y2="5"   />
      <line x1="1" y1="6" x2="23" y2="6"   />
      <line x1="1" y1="7" x2="23" y2="7"   />
      <line x1="1" y1="8" x2="23" y2="8"   />
      <line x1="1" y1="9" x2="23" y2="9"   />
      <line x1="1" y1="10" x2="23" y2="10"   />
      <line x1="1" y1="11" x2="23" y2="11"   />
      <line x1="1" y1="12" x2="23" y2="12"   />
      <line x1="1" y1="13" x2="23" y2="13"   />
      <line x1="1" y1="14" x2="23" y2="14"   />
      <line x1="1" y1="15" x2="23" y2="15"   />
      <line x1="1" y1="16" x2="23" y2="16"   />
      <line x1="1" y1="17" x2="23" y2="17"   />
      <line x1="1" y1="18" x2="23" y2="18"   />
      <line x1="1" y1="19" x2="23" y2="19"   />
      <line x1="1" y1="20" x2="23" y2="20"   />
      <line x1="1" y1="21" x2="23" y2="21"   />
      <line x1="1" y1="22" x2="23" y2="22"   />

      <line x1="2" y1="1" x2="2" y2="23"   />
      <line x1="3" y1="1" x2="3" y2="23"   />
      <line x1="4" y1="1" x2="4" y2="23"   />
      <line x1="5" y1="1" x2="5" y2="23"   />
      <line x1="6" y1="1" x2="6" y2="23"   />
      <line x1="7" y1="1" x2="7" y2="23"   />
      <line x1="8" y1="1" x2="8" y2="23"   />
      <line x1="9" y1="1" x2="9" y2="23"   />
      <line x1="10" y1="1" x2="10" y2="23"   />
      <line x1="11" y1="1" x2="11" y2="23"   />
      <line x1="12" y1="1" x2="12" y2="23"   />
      <line x1="13" y1="1" x2="13" y2="23"   />
      <line x1="14" y1="1" x2="14" y2="23"   />
      <line x1="15" y1="1" x2="15" y2="23"   />
      <line x1="16" y1="1" x2="16" y2="23"   />
      <line x1="17" y1="1" x2="17" y2="23"   />
      <line x1="18" y1="1" x2="18" y2="23"   />
      <line x1="19" y1="1" x2="19" y2="23"   />
      <line x1="20" y1="1" x2="20" y2="23"   />
      <line x1="21" y1="1" x2="21" y2="23"   />
      <line x1="22" y1="1" x2="22" y2="23"   />
  </g>

</svg>
