<?xml version="1.0" encoding="UTF-8" standalone="no"?>
<!-- Created with Inkscape (http://www.inkscape.org/) -->
<svg
   xmlns:dc="http://purl.org/dc/elements/1.1/"
   xmlns:cc="http://web.resource.org/cc/"
   xmlns:rdf="http://www.w3.org/1999/02/22-rdf-syntax-ns#"
   xmlns:svg="http://www.w3.org/2000/svg"
   xmlns="http://www.w3.org/2000/svg"
   xmlns:sodipodi="http://sodipodi.sourceforge.net/DTD/sodipodi-0.dtd"
   xmlns:inkscape="http://www.inkscape.org/namespaces/inkscape"
   width="744.09448819"
   height="1052.3622047"
   id="svg2194"
   sodipodi:version="0.32"
   inkscape:version="0.45"
   sodipodi:docname="xo.svg"
   sodipodi:docbase="/home/aron"
   inkscape:output_extension="org.inkscape.output.svg.inkscape"
   sodipodi:modified="true">
  <defs
     id="defs2196" />
  <sodipodi:namedview
     id="base"
     pagecolor="#ffffff"
     bordercolor="#666666"
     borderopacity="1.0"
     gridtolerance="10000"
     guidetolerance="10"
     objecttolerance="10"
     inkscape:pageopacity="0.0"
     inkscape:pageshadow="2"
     inkscape:zoom="14.009301"
     inkscape:cx="457.47607"
     inkscape:cy="248.57142"
     inkscape:document-units="px"
     inkscape:current-layer="layer1"
     showgrid="false"
     showguides="true"
     inkscape:window-width="895"
     inkscape:window-height="585"
     inkscape:window-x="462"
     inkscape:window-y="25" />
  <metadata
     id="metadata2199">
    <rdf:RDF>
      <cc:Work
         rdf:about="">
        <dc:format>image/svg+xml</dc:format>
        <dc:type
           rdf:resource="http://purl.org/dc/dcmitype/StillImage" />
      </cc:Work>
    </rdf:RDF>
  </metadata>

  <rect id="win" x="1" y="1" width="1" height="1" fill="lime" stroke-width="0.05" stroke="black" fill-opacity="0.4" />

  <rect id="last" x="1" y="1" width="1" height="1" fill="lime" stroke-width="0" fill-opacity="0.2" />

  <g
     inkscape:label="Layer 1"
     inkscape:groupmode="layer"
     id="layer1">
    <g
       id="x5"
       inkscape:label="#g2202"
       transform="matrix(1.0460897,0,0,1.051042,427.12999,788.99729)">
      <path
         id="path14117"
         d="M 3.4237624,5.2782177 C 5.5207059,7.925326 8.06929,10.337965 11.037129,11.945545"
         style="fill:none;fill-rule:evenodd;stroke:#aa0000;stroke-width:1px;stroke-linecap:round;stroke-linejoin:miter;stroke-opacity:1" />
      <path
         id="path14119"
         d="M 3.2435644,12.215842 C 3.2480728,12.218284 3.867649,11.770303 4.0544555,11.630198 C 7.2793036,9.2115619 9.1959626,6.6343688 11.80297,3.701485"
         style="fill:none;fill-rule:evenodd;stroke:#aa0000;stroke-width:1px;stroke-linecap:round;stroke-linejoin:miter;stroke-opacity:1" />
    </g>
    <path
       style="fill:none;fill-rule:evenodd;stroke:#a30000;stroke-width:0.71311265px;stroke-linecap:round;stroke-linejoin:miter;stroke-opacity:1"
       d="M 440.35655,793.16992 C 454.89681,802.30217 444.02319,803.57046 443.55893,800.51775 C 442.98117,797.63202 447.84482,793.89303 449.64344,792.71874"
       id="x4"
       sodipodi:nodetypes="ccz"
       inkscape:label="#path13064" />
    <g
       id="x3"
       inkscape:label="#g2210"
       transform="matrix(0.8698277,0,0,0.7803889,447.9318,790.82169)">
      <path
         sodipodi:nodetypes="cc"
         id="path12075"
         d="M 2.9282178,2.5301979 C 4.4419663,7.037881 8.4197308,10.158852 13.424753,12.756436"
         style="fill:none;fill-rule:evenodd;stroke:#9d0000;stroke-width:1px;stroke-linecap:round;stroke-linejoin:miter;stroke-opacity:1" />
      <path
         sodipodi:nodetypes="ccc"
         id="path12081"
         d="M 12.163366,2.6202969 C 12.1033,2.6803629 12.1033,2.6803629 12.163366,2.6202969 C 9.1955976,5.1258107 6.0362722,8.4607233 4.189604,14.333168"
         style="fill:none;fill-rule:evenodd;stroke:#9d0000;stroke-width:1px;stroke-linecap:round;stroke-linejoin:miter;stroke-opacity:1" />
    </g>
    <g
       id="x2"
       inkscape:label="#g2217"
       transform="matrix(0.8704568,0,0,0.7805968,457.88684,790.78448)">
      <path
         sodipodi:nodetypes="ccc"
         id="path2222"
         d="M 2.9282178,2.5301979 C 5.0334692,6.8475737 9.2759991,9.8273121 13.109406,12.531188 C 13.212588,12.608575 13.320918,12.678559 13.424753,12.756436"
         style="fill:none;fill-rule:evenodd;stroke:#9d0000;stroke-width:1px;stroke-linecap:round;stroke-linejoin:miter;stroke-opacity:1" />
      <path
         sodipodi:nodetypes="ccc"
         id="path2224"
         d="M 12.163366,2.6202969 C 12.1033,2.6803629 12.1033,2.6803629 12.163366,2.6202969 C 9.6911422,6.0268008 6.0362722,10.127555 4.189604,14.333168"
         style="fill:none;fill-rule:evenodd;stroke:#9d0000;stroke-width:1px;stroke-linecap:round;stroke-linejoin:miter;stroke-opacity:1" />
    </g>
    <g
       id="x1"
       inkscape:label="#g2226"
       transform="matrix(0.637206,0,0,0.6359759,469.74683,792.04281)">
      <path
         id="path4250"
         d="M 15.406931,0.99851472 C 7.5232674,15.819802 0.90099011,15.459406 0.90099011,15.459406"
         style="fill:none;fill-rule:evenodd;stroke:#aa0000;stroke-width:1;stroke-linecap:round;stroke-linejoin:miter;marker-start:none;marker-mid:none;stroke-miterlimit:2.5;stroke-dasharray:none;stroke-opacity:1" />
      <path
         id="path5223"
         d="M 1.4866337,1.6292078 C 12.839109,15.459406 15.587129,15.729703 15.587129,15.729703"
         style="fill:none;fill-rule:evenodd;stroke:#aa0000;stroke-width:1px;stroke-linecap:round;stroke-linejoin:miter;stroke-opacity:1" />
    </g>
    <path
       style="fill:none;fill-rule:evenodd;stroke:#000086;stroke-width:0.80943435px;stroke-linecap:round;stroke-linejoin:miter;stroke-opacity:1"
       d="M 437.32695,804.27058 C 433.26796,800.28187 428.00131,806.43388 432.28253,810.68536 C 434.16899,812.22445 436.9297,811.80744 438.55304,809.54663 C 440.15933,807.30956 438.74068,804.43935 436.38113,804.53629"
       id="o5"
       sodipodi:nodetypes="cczc"
       inkscape:label="#path11096" />
    <path
       style="fill:none;fill-rule:evenodd;stroke:#000085;stroke-width:0.81681675;stroke-linecap:butt;stroke-linejoin:miter;stroke-miterlimit:4;stroke-dasharray:none;stroke-opacity:1"
       d="M 443.30927,804.5508 C 441.15439,805.73353 441.20292,809.28741 443.77865,810.14822 C 446.35439,811.00903 448.02214,809.39745 447.94742,807.09085 C 447.87268,804.78424 445.45324,803.37406 443.30927,804.5508 z "
       id="o4"
       sodipodi:nodetypes="czzz"
       inkscape:label="#path9153" />
    <path
       style="fill:none;fill-rule:evenodd;stroke:#000095;stroke-width:0.65307695px;stroke-linecap:butt;stroke-linejoin:miter;stroke-opacity:1"
       d="M 458.67331,808.80999 C 458.70258,803.2538 454.33868,803.69712 454.33868,803.69712 C 454.33868,803.69712 449.88692,803.87444 450.17979,808.18935 C 450.47267,812.50428 455.68592,811.67675 455.68592,811.67675 C 455.68592,811.67675 458.23398,811.46987 458.67331,808.80999 z "
       id="o3"
       inkscape:label="#path8164" />
    <path
       style="fill:#0000ff;fill-opacity:1;stroke:#0000a1;stroke-width:0.73543131;stroke-linecap:round;stroke-linejoin:round;stroke-miterlimit:2.5;stroke-dasharray:none;stroke-opacity:1"
       id="o1"
       d="M 474.84252,804.0539 C 474.01669,804.09818 474.09771,804.2181 473.56146,804.58343 C 472.14849,805.6826 471.25923,806.90038 470.94055,808.28761 C 470.64345,809.5233 471.08023,810.46738 472.7492,811.17091 C 474.20791,811.63266 475.7674,811.72837 477.29637,811.38563 C 478.52639,810.48003 478.18757,809.4692 477.74527,808.37929 C 477.09998,807.05004 476.0418,805.85576 474.84655,804.71182 L 475.12037,804.60679 C 476.32175,805.74786 477.38975,806.93902 478.11193,808.24847 C 478.83606,809.67219 479.12565,810.8742 476.78706,811.64378 C 475.25121,811.96183 473.70319,811.84191 472.2543,811.37876 C 470.46533,810.64875 470.12943,809.71626 470.51416,808.42421 C 470.83442,807.05171 471.62656,805.84769 472.99711,804.73809 C 473.65279,804.23897 474.51121,803.78301 475.54995,803.7299 L 474.84252,804.0539 z "
       sodipodi:nodetypes="ccccccccccccccc"
       inkscape:label="#path6222" />
    <path
       style="fill:none;fill-rule:evenodd;stroke:#00009b;stroke-width:0.785;stroke-linecap:round;stroke-linejoin:round;stroke-opacity:1;stroke-miterlimit:4;stroke-dasharray:none"
       d="M 468.31992,811.14692 C 467.94897,811.51893 464.81488,811.44669 464.44195,811.40514 C 460.7555,810.99437 461.18863,809.06741 460.23293,806.8311 C 459.84324,805.91925 460.99962,804.31921 462.03004,803.95389 C 463.30122,803.50321 466.0993,803.70118 466.99574,804.47031 C 468.65963,805.89791 468.86658,807.63932 468.31992,809.48699 C 467.99255,810.59348 465.41991,811.27824 464.06361,810.9256 C 463.91632,810.88731 463.77985,810.82724 463.63798,810.77805"
       id="o2"
       inkscape:label="#path2299" />
  </g>

  <rect id="background" x="0" y="0" width="24" height="24" fill="white"
        stroke="none" />

  <g id="grid" stroke="blue" >
    <rect id="border" x="1" y="1" width="22" height="22"
          fill="none" stroke="blue" stroke-width="0.05" />
    <line x1="1" y1="2" x2="23" y2="2" stroke-width="0.02" />
    <line x1="1" y1="3" x2="23" y2="3" stroke-width="0.02" />
    <line x1="1" y1="4" x2="23" y2="4" stroke-width="0.02" />
    <line x1="1" y1="5" x2="23" y2="5" stroke-width="0.02" />
    <line x1="1" y1="6" x2="23" y2="6" stroke-width="0.02" />
    <line x1="1" y1="7" x2="23" y2="7" stroke-width="0.02" />
    <line x1="1" y1="8" x2="23" y2="8" stroke-width="0.02" />
    <line x1="1" y1="9" x2="23" y2="9" stroke-width="0.02" />
    <line x1="1" y1="10" x2="23" y2="10" stroke-width="0.02" />
    <line x1="1" y1="11" x2="23" y2="11" stroke-width="0.02" />
    <line x1="1" y1="12" x2="23" y2="12" stroke-width="0.02" />
    <line x1="1" y1="13" x2="23" y2="13" stroke-width="0.02" />
    <line x1="1" y1="14" x2="23" y2="14" stroke-width="0.02" />
    <line x1="1" y1="15" x2="23" y2="15" stroke-width="0.02" />
    <line x1="1" y1="16" x2="23" y2="16" stroke-width="0.02" />
    <line x1="1" y1="17" x2="23" y2="17" stroke-width="0.02" />
    <line x1="1" y1="18" x2="23" y2="18" stroke-width="0.02" />
    <line x1="1" y1="19" x2="23" y2="19" stroke-width="0.02" />
    <line x1="1" y1="20" x2="23" y2="20" stroke-width="0.02" />
    <line x1="1" y1="21" x2="23" y2="21" stroke-width="0.02" />

    <line x1="1" y1="22" x2="23" y2="22" stroke-width="0.02" />
    <line x1="2" y1="1" x2="2" y2="23" stroke-width="0.02" />
    <line x1="3" y1="1" x2="3" y2="23" stroke-width="0.02" />
    <line x1="4" y1="1" x2="4" y2="23" stroke-width="0.02" />
    <line x1="5" y1="1" x2="5" y2="23" stroke-width="0.02" />
    <line x1="6" y1="1" x2="6" y2="23" stroke-width="0.02" />
    <line x1="7" y1="1" x2="7" y2="23" stroke-width="0.02" />
    <line x1="8" y1="1" x2="8" y2="23" stroke-width="0.02" />
    <line x1="9" y1="1" x2="9" y2="23" stroke-width="0.02" />
    <line x1="10" y1="1" x2="10" y2="23" stroke-width="0.02" />
    <line x1="11" y1="1" x2="11" y2="23" stroke-width="0.02" />
    <line x1="12" y1="1" x2="12" y2="23" stroke-width="0.02" />
    <line x1="13" y1="1" x2="13" y2="23" stroke-width="0.02" />
    <line x1="14" y1="1" x2="14" y2="23" stroke-width="0.02" />
    <line x1="15" y1="1" x2="15" y2="23" stroke-width="0.02" />
    <line x1="16" y1="1" x2="16" y2="23" stroke-width="0.02" />
    <line x1="17" y1="1" x2="17" y2="23" stroke-width="0.02" />
    <line x1="18" y1="1" x2="18" y2="23" stroke-width="0.02" />
    <line x1="19" y1="1" x2="19" y2="23" stroke-width="0.02" />
    <line x1="20" y1="1" x2="20" y2="23" stroke-width="0.02" />
    <line x1="21" y1="1" x2="21" y2="23" stroke-width="0.02" />
    <line x1="22" y1="1" x2="22" y2="23" stroke-width="0.02" />
  </g>
</svg>
